<svg xmlns="http://www.w3.org/2000/svg" width="640" height="400" viewBox="0 0 640 400">
  <defs>
    <linearGradient id="bg" x1="0" y1="0" x2="1" y2="1">
      <stop offset="0%" stop-color="#f8efe3" />
      <stop offset="100%" stop-color="#e8f1ec" />
    </linearGradient>
    <marker id="arrow" markerWidth="10" markerHeight="10" refX="6" refY="3" orient="auto">
      <path d="M0,0 L6,3 L0,6" fill="#1d2b2a" />
    </marker>
  </defs>

  <rect width="640" height="400" fill="url(#bg)" />

  <rect x="60" y="60" width="220" height="60" rx="16" fill="#ffffff" stroke="#c6d7d4" />
  <text x="170" y="95" text-anchor="middle" font-family="Sora, sans-serif" font-size="16" fill="#1d2b2a">Init nidos</text>

  <rect x="360" y="60" width="220" height="60" rx="16" fill="#ffffff" stroke="#c6d7d4" />
  <text x="470" y="95" text-anchor="middle" font-family="Sora, sans-serif" font-size="16" fill="#1d2b2a">Vuelo Levy</text>

  <rect x="60" y="170" width="220" height="60" rx="16" fill="#ffffff" stroke="#c6d7d4" />
  <text x="170" y="205" text-anchor="middle" font-family="Sora, sans-serif" font-size="16" fill="#1d2b2a">Reemplazo</text>

  <rect x="360" y="170" width="220" height="60" rx="16" fill="#ffffff" stroke="#c6d7d4" />
  <text x="470" y="205" text-anchor="middle" font-family="Sora, sans-serif" font-size="16" fill="#1d2b2a">Abandonar peores</text>

  <rect x="210" y="280" width="220" height="60" rx="16" fill="#ffffff" stroke="#c6d7d4" />
  <text x="320" y="315" text-anchor="middle" font-family="Sora, sans-serif" font-size="16" fill="#1d2b2a">Actualizar mejor</text>

  <line x1="280" y1="90" x2="360" y2="90" stroke="#1d2b2a" stroke-width="2" marker-end="url(#arrow)" />
  <line x1="470" y1="120" x2="470" y2="170" stroke="#1d2b2a" stroke-width="2" marker-end="url(#arrow)" />
  <line x1="360" y1="200" x2="280" y2="200" stroke="#1d2b2a" stroke-width="2" marker-end="url(#arrow)" />
  <path d="M170 230 L170 250 L320 250 L320 280" stroke="#1d2b2a" stroke-width="2" fill="none" stroke-linecap="round" stroke-linejoin="round" marker-end="url(#arrow)" />
  <path d="M320 340 L320 360 L40 360 L40 40 L170 40 L170 60" stroke="#1d2b2a" stroke-width="2" fill="none" stroke-linecap="round" stroke-linejoin="round" marker-end="url(#arrow)" />
</svg>
